<svg width="66" height="66" viewBox="0 0 66 66" fill="none" xmlns="http://www.w3.org/2000/svg">
<mask id="mask0_434_703" style="mask-type:alpha" maskUnits="userSpaceOnUse" x="0" y="0" width="66" height="66">
<rect width="65.2773" height="65.2773" fill="#D9D9D9"/>
</mask>
<g mask="url(#mask0_434_703)">
<path d="M46.2366 62.624C45.466 62.624 44.82 62.352 44.2987 61.808C43.7774 61.264 43.5167 60.6067 43.5167 59.8361C43.5167 59.0654 43.7774 58.4195 44.2987 57.8981C44.82 57.3768 45.466 57.1162 46.2366 57.1162C49.2285 57.1162 51.7897 56.0509 53.9203 53.9203C56.0509 51.7897 57.1162 49.2285 57.1162 46.2366C57.1162 45.466 57.3882 44.8087 57.9321 44.2647C58.4761 43.7207 59.1334 43.4487 59.9041 43.4487C60.6747 43.4487 61.3207 43.7207 61.842 44.2647C62.3633 44.8087 62.624 45.466 62.624 46.2366C62.624 50.7698 61.026 54.6343 57.8301 57.8301C54.6343 61.026 50.7698 62.624 46.2366 62.624ZM5.43828 21.7576C4.66764 21.7576 4.01034 21.497 3.46636 20.9756C2.92238 20.4543 2.65039 19.8084 2.65039 19.0377C2.65039 14.5046 4.24833 10.6401 7.4442 7.4442C10.6401 4.24833 14.5046 2.65039 19.0377 2.65039C19.8084 2.65039 20.4657 2.91105 21.0096 3.43236C21.5536 3.95367 21.8256 4.59964 21.8256 5.37028C21.8256 6.14092 21.5536 6.79822 21.0096 7.3422C20.4657 7.88618 19.8084 8.15817 19.0377 8.15817C16.0458 8.15817 13.4846 9.22346 11.354 11.354C9.22346 13.4846 8.15817 16.0458 8.15817 19.0377C8.15817 19.8084 7.89751 20.4543 7.3762 20.9756C6.85489 21.497 6.20891 21.7576 5.43828 21.7576ZM53.1043 13.9379C53.1043 14.6632 52.8324 15.2979 52.2884 15.8419L35.0171 33.1812C34.5184 33.7251 33.8951 33.9858 33.1472 33.9631C32.3992 33.9405 31.7532 33.6798 31.2092 33.1812C30.6653 32.6372 30.3933 31.9912 30.3933 31.2432C30.3933 30.4953 30.6653 29.8493 31.2092 29.3053L48.4805 12.034C49.0245 11.49 49.6591 11.218 50.3845 11.218C51.1098 11.218 51.7444 11.49 52.2884 12.034C52.8324 12.578 53.1043 13.2126 53.1043 13.9379ZM57.9321 22.6076C57.9321 23.3555 57.6602 24.0015 57.1162 24.5455L41.7488 39.9129C41.2502 40.4115 40.6268 40.6608 39.8789 40.6608C39.1309 40.6608 38.4849 40.4115 37.941 39.9129C37.397 39.3689 37.1137 38.7229 37.091 37.975C37.0683 37.227 37.329 36.581 37.873 36.037L53.2403 20.6697C53.7843 20.1257 54.4303 19.8537 55.1783 19.8537C55.9262 19.8537 56.5722 20.1257 57.1162 20.6697C57.6602 21.2136 57.9321 21.8596 57.9321 22.6076ZM14.3459 50.9284C10.2207 46.8033 8.15817 41.8395 8.15817 36.037C8.15817 30.2346 10.2207 25.2708 14.3459 21.1456L20.6017 14.8899C21.1456 14.3459 21.7803 14.0739 22.5056 14.0739C23.2309 14.0739 23.8655 14.3459 24.4095 14.8899L26.5174 16.9978C26.8347 17.3151 27.1067 17.6438 27.3334 17.9838C27.56 18.3238 27.7867 18.6751 28.0134 19.0377L38.077 8.90614C38.6209 8.36216 39.2669 8.09017 40.0149 8.09017C40.7628 8.09017 41.4088 8.36216 41.9528 8.90614C42.4968 9.45011 42.7688 10.0961 42.7688 10.8441C42.7688 11.592 42.4968 12.238 41.9528 12.782L30.1893 24.5455L24.4095 30.2573L25.7015 31.5492C27.7867 33.6345 28.784 36.1277 28.6933 39.0289C28.6027 41.9301 27.492 44.446 25.3615 46.5766L25.2935 46.6446C24.7948 47.1433 24.1715 47.3926 23.4235 47.3926C22.6756 47.3926 22.0296 47.1433 21.4856 46.6446C20.9416 46.1006 20.6697 45.4547 20.6697 44.7067C20.6697 43.9587 20.9416 43.3127 21.4856 42.7688C22.5282 41.7261 23.1062 40.4909 23.2196 39.0629C23.3329 37.635 22.8682 36.3997 21.8256 35.3571L18.6297 32.2292C18.0858 31.6852 17.8138 31.0392 17.8138 30.2913C17.8138 29.5433 18.0858 28.8973 18.6297 28.3533L22.5056 24.5455C23.0496 24.0015 23.3215 23.3555 23.3215 22.6076C23.3215 21.8596 23.0496 21.2136 22.5056 20.6697L18.1538 25.0215C15.0712 28.104 13.5299 31.7872 13.5299 36.071C13.5299 40.3549 15.0712 44.038 18.1538 47.1206C21.2363 50.2031 24.9308 51.7444 29.2373 51.7444C33.5438 51.7444 37.2383 50.2031 40.3209 47.1206L56.5722 30.8012C57.1162 30.2573 57.7622 29.9853 58.5101 29.9853C59.2581 29.9853 59.9041 30.2573 60.448 30.8012C60.992 31.3452 61.264 31.9912 61.264 32.7392C61.264 33.4871 60.992 34.1331 60.448 34.6771L44.1287 50.9284C40.0035 55.0536 35.0397 57.1162 29.2373 57.1162C23.4349 57.1162 18.4711 55.0536 14.3459 50.9284Z" fill="#7C5DC4"/>
</g>
</svg>
